<svg width="26" height="26" viewBox="0 0 26 26" fill="none" xmlns="http://www.w3.org/2000/svg">
<path d="M24.4617 7.9625L13.5146 2.05508C13.1929 1.88175 12.8061 1.88175 12.4855 2.05508L1.54379 7.9625C1.01729 8.2485 0.821202 8.905 1.10504 9.4315C1.30004 9.79441 1.67379 10.0002 2.05837 10.0002C2.2317 10.0002 2.40937 9.95908 2.57295 9.87025L3.36812 9.44125L5.09062 21.6287C5.32462 22.9439 6.50978 23.8626 7.97228 23.8626H18.0278C19.4903 23.8626 20.6755 22.9439 20.9116 21.6006L22.632 9.44016L23.4304 9.87133C23.9558 10.1562 24.6134 9.96016 24.8972 9.43366C25.1821 8.90716 24.9839 8.24958 24.4595 7.96575L24.4617 7.9625ZM13 16.7212C11.0555 16.7212 9.4792 15.145 9.4792 13.2004C9.4792 11.2558 11.0555 9.67958 13 9.67958C14.9446 9.67958 16.5209 11.2558 16.5209 13.2004C16.5209 15.145 14.9446 16.7212 13 16.7212Z" fill="#333333"/>
</svg>
