<svg width="34" height="34" viewBox="0 0 34 34" fill="none" xmlns="http://www.w3.org/2000/svg">
<g clip-path="url(#clip0)">
<path d="M27.293 17.4557V14.2773C27.293 9.64073 24.2111 5.71087 19.9884 4.4273V2.98828C19.9884 1.34054 18.6478 0 17.0001 0C15.3523 0 14.0118 1.34054 14.0118 2.98828V4.4273C9.78902 5.71087 6.70711 9.64066 6.70711 14.2773V17.4557C6.70711 21.5285 5.15466 25.3904 2.33578 28.3301C2.05953 28.6182 1.98191 29.0432 2.13849 29.4103C2.29508 29.7774 2.65566 30.0156 3.05477 30.0156H12.1198C12.5825 32.2862 14.5949 34 17.0001 34C19.4053 34 21.4176 32.2862 21.8803 30.0156H30.9454C31.3445 30.0156 31.705 29.7774 31.8616 29.4103C32.0182 29.0432 31.9406 28.6182 31.6644 28.3301C28.8455 25.3904 27.293 21.5284 27.293 17.4557ZM16.004 2.98828C16.004 2.43904 16.4508 1.99219 17.0001 1.99219C17.5493 1.99219 17.9962 2.43904 17.9962 2.98828V4.03272C17.6683 4.00111 17.3361 3.98438 17.0001 3.98438C16.6641 3.98438 16.3318 4.00111 16.004 4.03272V2.98828ZM17.0001 32.0078C15.7015 32.0078 14.5943 31.175 14.1831 30.0156H19.817C19.4058 31.175 18.2987 32.0078 17.0001 32.0078ZM5.20168 28.0234C7.47018 24.9826 8.6993 21.3026 8.6993 17.4557V14.2773C8.6993 9.70029 12.423 5.97656 17.0001 5.97656C21.5771 5.97656 25.3009 9.70029 25.3009 14.2773V17.4557C25.3009 21.3026 26.53 24.9826 28.7985 28.0234H5.20168Z" fill="black"/>
<path d="M29.9492 14.2773C29.9492 14.8275 30.3952 15.2734 30.9453 15.2734C31.4954 15.2734 31.9414 14.8275 31.9414 14.2773C31.9414 10.2863 30.3872 6.53418 27.5652 3.71211C27.1762 3.32317 26.5455 3.3231 26.1565 3.71211C25.7675 4.10112 25.7675 4.73178 26.1565 5.12079C28.6023 7.56659 29.9492 10.8184 29.9492 14.2773Z" fill="black"/>
<path d="M3.05469 15.2735C3.6048 15.2735 4.05078 14.8275 4.05078 14.2774C4.05078 10.8186 5.39777 7.56671 7.84351 5.1209C8.23252 4.73189 8.23252 4.10123 7.84351 3.71223C7.45457 3.32322 6.82384 3.32322 6.43483 3.71223C3.61277 6.53429 2.05859 10.2864 2.05859 14.2774C2.05859 14.8275 2.50458 15.2735 3.05469 15.2735Z" fill="black"/>
</g>
<defs>
<clipPath id="clip0">
<rect width="34" height="34" fill="white"/>
</clipPath>
</defs>
</svg>
