<svg viewBox="0 0 337.002 337.002" xmlns="http://www.w3.org/2000/svg" xmlns:xlink="http://www.w3.org/1999/xlink" id="Capa_1" overflow="hidden"><g id="XMLID_243_"><path d="M222.902 147.886 41.783 23.923C33.609 18.335 23.008 17.722 14.25 22.337 5.478 26.971 0 36.065 0 45.962L0 290.841C0 300.782 5.508 309.894 14.328 314.495 23.13 319.112 33.748 318.45 41.922 312.786L223.026 187.222C229.476 182.743 233.323 175.372 233.292 167.523 233.275 159.66 229.383 152.319 222.902 147.886Z" id="XMLID_245_"/><path d="M305.484 9.502C288.078 9.502 273.966 23.614 273.966 41.021L273.966 295.981C273.966 313.388 288.077 327.5 305.484 327.5 322.891 327.5 337.002 313.389 337.002 295.981L337.002 41.021C337.002 23.615 322.892 9.502 305.484 9.502Z" id="XMLID_244_"/></g><g></g><g></g><g></g><g></g><g></g><g></g><g></g><g></g><g></g><g></g><g></g><g></g><g></g><g></g><g></g></svg>