<svg width="150" height="492" xmlns="http://www.w3.org/2000/svg" xmlns:xlink="http://www.w3.org/1999/xlink" overflow="hidden"><defs><clipPath id="clip0"><rect x="569" y="117" width="150" height="492"/></clipPath><clipPath id="clip1"><rect x="570" y="118" width="148" height="490"/></clipPath><clipPath id="clip2"><rect x="570" y="118" width="148" height="487"/></clipPath><clipPath id="clip3"><rect x="395" y="114" width="490" height="491"/></clipPath></defs><g clip-path="url(#clip0)" transform="translate(-569 -117)"><g clip-path="url(#clip1)"><g clip-path="url(#clip2)"><g clip-path="url(#clip3)"><path d="M425.041 227.893 354.068 227.893 354.068 261.234 425.041 261.234 385.512 300.863 409.17 324.521 489.127 244.563 409.17 164.606 385.512 188.264Z" transform="matrix(1 0 0 1.00179 395.709 114.967)"/><path d="M64.0856 261.234 135.059 261.234 135.059 227.893 64.0856 227.893 103.615 188.264 79.9573 164.606 0 244.563 79.9573 324.521 103.615 300.863Z" transform="matrix(1 0 0 1.00179 395.709 114.967)"/><path d="M178.182 0 228.292 0 228.292 489.127 178.182 489.127Z" transform="matrix(1 0 0 1.00179 395.709 114.967)"/><path d="M269.02 0 319.13 0 319.13 489.127 269.02 489.127Z" transform="matrix(1 0 0 1.00179 395.709 114.967)"/></g></g></g></g></svg>