<svg width="20" height="20" viewBox="0 0 20 20" fill="none" xmlns="http://www.w3.org/2000/svg">
<path d="M17.9416 17.0583L14.8916 14.0083C15.9958 12.7 16.6666 11.0117 16.6666 9.16666C16.6666 5.02499 13.3083 1.66666 9.16663 1.66666C5.02496 1.66666 1.66663 5.02499 1.66663 9.16666C1.66663 13.3083 5.02496 16.6667 9.16663 16.6667C11.0125 16.6667 12.7 15.9967 14.0066 14.8917L17.0566 17.9417C17.1791 18.0633 17.34 18.125 17.4983 18.125C17.6566 18.125 17.8191 18.0642 17.94 17.9417C18.1858 17.6975 18.1858 17.3025 17.9416 17.0583ZM2.91663 9.16666C2.91663 5.72082 5.72079 2.91666 9.16663 2.91666C12.6125 2.91666 15.4166 5.72082 15.4166 9.16666C15.4166 12.6125 12.6125 15.4167 9.16663 15.4167C5.72079 15.4167 2.91663 12.6125 2.91663 9.16666Z" fill="#828282"/>
</svg>
