<?xml version="1.0" encoding="iso-8859-1"?>
<!-- Generator: Adobe Illustrator 18.0.0, SVG Export Plug-In . SVG Version: 6.00 Build 0)  -->
<!DOCTYPE svg PUBLIC "-//W3C//DTD SVG 1.1//EN" "http://www.w3.org/Graphics/SVG/1.1/DTD/svg11.dtd">
<svg version="1.1" id="Capa_1" xmlns="http://www.w3.org/2000/svg" xmlns:xlink="http://www.w3.org/1999/xlink" x="0px" y="0px"
	 viewBox="0 0 337.002 337.002" style="enable-background:new 0 0 337.002 337.002;" xml:space="preserve">
<g id="XMLID_243_">
	<path id="XMLID_245_" d="M222.902,147.886L41.783,23.923c-8.174-5.588-18.775-6.201-27.533-1.586C5.478,26.971,0,36.065,0,45.962
		v244.879c0,9.941,5.508,19.053,14.328,23.654c8.802,4.617,19.42,3.955,27.594-1.709l181.104-125.564
		c6.45-4.479,10.297-11.85,10.266-19.699C233.275,159.66,229.383,152.319,222.902,147.886z"/>
	<path id="XMLID_244_" d="M305.484,9.502c-17.406,0-31.518,14.112-31.518,31.519v254.96c0,17.407,14.111,31.519,31.518,31.519
		c17.407,0,31.518-14.111,31.518-31.519V41.021C337.002,23.615,322.892,9.502,305.484,9.502z"/>
</g>
<g>
</g>
<g>
</g>
<g>
</g>
<g>
</g>
<g>
</g>
<g>
</g>
<g>
</g>
<g>
</g>
<g>
</g>
<g>
</g>
<g>
</g>
<g>
</g>
<g>
</g>
<g>
</g>
<g>
</g>
</svg>
