<svg width="782" height="69" viewBox="0 0 782 69" fill="none" xmlns="http://www.w3.org/2000/svg">
<g clip-path="url(#clip0)">
<path d="M22.5481 47.3833L32.5741 38.167L42.6002 28.9507C43.5112 29.7777 44.7292 30.1821 46.0162 30.1821C47.6472 30.1821 49.3822 29.5361 50.7482 28.2836C53.2032 26.0295 53.5192 22.6681 51.4562 20.7723C50.5422 19.9306 49.3152 19.5235 48.0182 19.5235C46.3882 19.5235 44.6502 20.1695 43.2862 21.4202C42.6862 21.9734 42.2172 22.5899 41.8782 23.2369L41.8782 23.235C41.8752 23.2405 41.8732 23.2461 41.8672 23.2497C41.8432 23.3039 41.8132 23.3591 41.7892 23.4188C38.5881 30.1205 35.3732 30.7867 35.3732 30.7867C26.9971 38.4826 22.8091 43.5441 22.8091 43.5441L22.5481 47.3833ZM45.2912 23.2654C46.0652 22.555 47.0862 22.1277 48.0182 22.1277C48.4312 22.1277 49.0132 22.2104 49.4512 22.6138C50.3882 23.4739 50.0612 25.2272 48.7432 26.4402C47.9572 27.1597 46.9642 27.576 46.0162 27.576C45.6072 27.576 45.0212 27.4915 44.5812 27.0899C43.6472 26.2289 43.9712 24.4783 45.2912 23.2654Z" fill="black"/>
</g>
<path d="M43 34.919C42.06 33.8273 35.6845 25.9175 33.9554 23.6644C33.9264 23.6056 33.9034 23.5495 33.8744 23.4953C33.8714 23.4916 33.8684 23.4861 33.8684 23.4806L33.8664 23.4824C33.5244 22.8364 33.0544 22.2189 32.4554 21.6657C31.0914 20.4151 29.3534 19.7691 27.7264 19.7691C26.4284 19.7691 25.2004 20.1762 24.2854 21.0179C22.2274 22.9127 22.5454 26.275 24.9954 28.5292C26.3624 29.7816 28.0994 30.4276 29.7274 30.4276C31.0154 30.4276 32.2324 30.0242 33.1444 29.1963L39.5 36.7568L43 34.919ZM31.1604 27.3373C30.7224 27.7398 30.1394 27.8234 29.7264 27.8234C28.7804 27.8234 27.7844 27.4072 26.9994 26.6876C25.6804 25.4747 25.3574 23.7205 26.2914 22.8613C26.7274 22.4579 27.3124 22.3752 27.7254 22.3752C28.6584 22.3752 29.6774 22.8025 30.4524 23.5128C31.7714 24.7257 32.0994 26.4763 31.1604 27.3373Z" fill="black"/>
<line x1="0.5" y1="68.5" x2="781.5" y2="68.4999" stroke="white"/>
<path d="M51.4609 47.8984L44 41.8106L37.5 34.4593L40.6639 32.162C43.2699 35.1236 47.1509 39.7678 52.0039 45.093L51.4609 47.8984Z" fill="black"/>
<defs>
<clipPath id="clip0">
<rect width="30.808" height="28.3101" fill="white" transform="translate(53.3081 47.6074) rotate(-180)"/>
</clipPath>
</defs>
</svg>
