<svg width="1203" height="1118" viewBox="0 0 1203 1118" fill="none" xmlns="http://www.w3.org/2000/svg">
<path d="M1.87612 1097.85L393.374 737.596L784.873 377.339C820.446 409.667 868.006 425.471 918.262 425.471C981.949 425.471 1049.7 400.22 1103.04 351.261C1198.9 263.15 1211.24 131.755 1130.68 57.6528C1094.99 24.7502 1047.08 8.83771 996.436 8.8377C932.788 8.8377 864.922 34.0893 811.66 82.9762C788.231 104.6 769.917 128.702 756.68 153.99L756.68 153.918C756.563 154.133 756.485 154.349 756.25 154.492C755.313 156.612 754.142 158.767 753.204 161.102C628.211 423.065 502.671 449.107 502.671 449.107C175.602 749.935 12.0677 947.781 12.0677 947.781L1.87612 1097.85ZM889.952 155.103C920.175 127.337 960.043 110.634 996.436 110.634C1012.56 110.634 1035.29 113.867 1052.39 129.636C1088.98 163.257 1076.21 231.792 1024.75 279.206C994.054 307.331 955.279 323.603 918.262 323.603C902.291 323.603 879.409 320.298 862.227 304.601C825.756 270.944 838.408 202.517 889.952 155.103Z" fill="black"/>
<path d="M800.485 610.634C763.779 567.962 514.826 258.775 447.309 170.701C446.177 168.402 445.279 166.211 444.146 164.092C444.029 163.948 443.912 163.733 443.912 163.517L443.834 163.589C430.479 138.337 412.127 114.199 388.737 92.5756C335.475 43.6888 267.609 18.437 204.077 18.437C153.393 18.437 105.441 34.3496 69.7122 67.2521C-10.6491 141.319 1.7684 272.749 97.4367 360.86C150.816 409.819 218.643 435.071 282.213 435.071C332.507 435.071 380.029 419.302 415.641 386.938L663.816 682.474L800.485 610.634ZM338.169 314.273C321.066 330.005 298.301 333.274 282.174 333.274C245.234 333.274 206.342 317.002 175.689 288.877C124.185 241.463 111.572 172.892 148.043 139.307C165.068 123.538 187.911 120.306 204.038 120.306C240.47 120.306 280.261 137.008 310.523 164.774C362.028 212.188 374.836 280.616 338.169 314.273Z" fill="black"/>
<path d="M1130.87 1118L839.534 880.031L585.72 592.673L709.265 502.874C811.025 618.643 962.571 800.182 1152.07 1008.34L1130.87 1118Z" fill="black"/>
</svg>
